<svg width="14" height="13" viewBox="0 0 14 13" fill="none" xmlns="http://www.w3.org/2000/svg">
<path d="M6.73467 0.502901C6.84723 0.289557 7.15277 0.289558 7.26533 0.502902L9.0707 3.92471C9.11411 4.00699 9.19323 4.06447 9.28489 4.08033L13.0971 4.73994C13.3348 4.78106 13.4292 5.07165 13.2611 5.24463L10.5647 8.01904C10.4998 8.08575 10.4696 8.17876 10.4828 8.27083L11.0336 12.1003C11.0679 12.3391 10.8207 12.5187 10.6042 12.4122L7.13237 10.7051C7.0489 10.664 6.9511 10.664 6.86763 10.7051L3.39576 12.4122C3.1793 12.5187 2.93211 12.3391 2.96644 12.1003L3.51716 8.27083C3.5304 8.17876 3.50018 8.08575 3.43534 8.01904L0.738899 5.24463C0.57078 5.07165 0.665199 4.78106 0.902885 4.73994L4.71511 4.08033C4.80677 4.06447 4.88589 4.00699 4.9293 3.92471L6.73467 0.502901Z" fill="#C4C4C4"/>
<path fill-rule="evenodd" clip-rule="evenodd" d="M7.34627 0.656162L7.26534 0.502782C7.15278 0.289438 6.84724 0.289437 6.73467 0.502781L4.9293 3.92459C4.8859 4.00687 4.80678 4.06435 4.71512 4.08021L0.902893 4.73982C0.665207 4.78094 0.570788 5.07153 0.738907 5.24451L3.43535 8.01892C3.50019 8.08563 3.53041 8.17864 3.51716 8.27071L2.96645 12.1002C2.93211 12.3389 3.1793 12.5185 3.39577 12.4121L6.86763 10.705C6.95111 10.6639 7.04891 10.6639 7.13238 10.705L7.34627 10.8101V0.656162Z" fill="#FFC41F"/>
</svg>
