<svg width="14" height="13" viewBox="0 0 14 13" fill="none" xmlns="http://www.w3.org/2000/svg">
<path d="M6.73467 0.502901C6.84723 0.289557 7.15277 0.289558 7.26533 0.502902L9.0707 3.92471C9.11411 4.00699 9.19323 4.06447 9.28489 4.08033L13.0971 4.73994C13.3348 4.78106 13.4292 5.07165 13.2611 5.24463L10.5647 8.01904C10.4998 8.08575 10.4696 8.17876 10.4828 8.27083L11.0336 12.1003C11.0679 12.3391 10.8207 12.5187 10.6042 12.4122L7.13237 10.7051C7.0489 10.664 6.9511 10.664 6.86763 10.7051L3.39576 12.4122C3.1793 12.5187 2.93211 12.3391 2.96644 12.1003L3.51716 8.27083C3.5304 8.17876 3.50018 8.08575 3.43534 8.01904L0.738899 5.24463C0.57078 5.07165 0.665199 4.78106 0.902885 4.73994L4.71511 4.08033C4.80677 4.06447 4.88589 4.00699 4.9293 3.92471L6.73467 0.502901Z" fill="#FFC41F"/>
</svg>
